<?xml version="1.0" encoding="UTF-8" standalone="no" ?>
<!DOCTYPE svg PUBLIC "-//W3C//DTD SVG 1.1//EN" "http://www.w3.org/Graphics/SVG/1.1/DTD/svg11.dtd">
<svg xmlns="http://www.w3.org/2000/svg" xmlns:xlink="http://www.w3.org/1999/xlink" version="1.1" width="400" height="400" viewBox="100 100 200 200" xml:space="preserve">
<desc>Created with Fabric.js 3.6.2</desc>
<defs>
</defs>
<g transform="matrix(3.03 0 0 3.03 200 203.03)" id="Livello_1"  >
<path style="stroke: none; stroke-width: 1; stroke-dasharray: none; stroke-linecap: butt; stroke-dashoffset: 0; stroke-linejoin: miter; stroke-miterlimit: 4; fill: rgb(79,79,79); fill-rule: nonzero; opacity: 1;"  transform=" translate(-33, -34)" d="M 1 34 A 32 32 0 1 0 33 2 A 32 32 0 0 0 1 34 Z" stroke-linecap="round" />
</g>
<g transform="matrix(3.03 0 0 3.03 198.62 202.92)" id="Phone"  >
<path style="stroke: rgb(31,31,31); stroke-width: 2; stroke-dasharray: none; stroke-linecap: round; stroke-dashoffset: 0; stroke-linejoin: round; stroke-miterlimit: 4; fill: rgb(31,31,31); fill-rule: nonzero; opacity: 1;"  transform=" translate(-32.54, -33.96)" d="M 34.93 40.84 c 1 -0.09 2.95 -1.92 4 -2 a 4 4 0 0 1 2.78 0.8 l 2.68 2 L 46 42.92 a 2.52 2.52 0 0 1 0.43 3.62 l -3.11 4 a 1.12 1.12 0 0 1 -1 0.43 c -13.5 -1.21 -24.24 -12.26 -24.24 -25.68 a 25 25 0 0 1 1 -7 a 0.66 0.66 0 0 1 0.5 -0.45 l 5.91 -0.83 a 2.63 2.63 0 0 1 3.12 2 L 29 21 l 0.65 3.26 a 3.75 3.75 0 0 1 -0.53 2.78 c -0.54 0.84 -3.09 1.68 -3.64 2.53 h 0 A 19.39 19.39 0 0 0 34.93 41 V 40.84 Z" stroke-linecap="round" />
</g>
</svg>