<?xml version="1.0" encoding="UTF-8" standalone="no" ?>
<!DOCTYPE svg PUBLIC "-//W3C//DTD SVG 1.1//EN" "http://www.w3.org/Graphics/SVG/1.1/DTD/svg11.dtd">
<svg xmlns="http://www.w3.org/2000/svg" xmlns:xlink="http://www.w3.org/1999/xlink" version="1.1" width="400" height="400" viewBox="90 110 215 200" xml:space="preserve">
<desc>Created with Fabric.js 3.6.2</desc>
<defs>
</defs>
<g transform="matrix(0.1 0 0 0.1 200 200)"  >
<path style="stroke: none; stroke-width: 1; stroke-dasharray: none; stroke-linecap: butt; stroke-dashoffset: 0; stroke-linejoin: miter; stroke-miterlimit: 4; fill: rgb(255,255,255); fill-rule: nonzero; opacity: 1;"  transform=" translate(-896, -896)" d="M 1792 768 q 53 0 90.5 37.5 t 37.5 90.5 t -37.5 90.5 t -90.5 37.5 h -15 l -115 662 q -8 46 -44 76 t -82 30 h -1280 q -46 0 -82 -30 t -44 -76 l -115 -662 h -15 q -53 0 -90.5 -37.5 t -37.5 -90.5 t 37.5 -90.5 t 90.5 -37.5 h 1792 z m -1435 800 q 26 -2 43.5 -22.5 t 15.5 -46.5 l -32 -416 q -2 -26 -22.5 -43.5 t -46.5 -15.5 t -43.5 22.5 t -15.5 46.5 l 32 416 q 2 25 20.5 42 t 43.5 17 h 5 z m 411 -64 v -416 q 0 -26 -19 -45 t -45 -19 t -45 19 t -19 45 v 416 q 0 26 19 45 t 45 19 t 45 -19 t 19 -45 z m 384 0 v -416 q 0 -26 -19 -45 t -45 -19 t -45 19 t -19 45 v 416 q 0 26 19 45 t 45 19 t 45 -19 t 19 -45 z m 352 5 l 32 -416 q 2 -26 -15.5 -46.5 t -43.5 -22.5 t -46.5 15.5 t -22.5 43.5 l -32 416 q -2 26 15.5 46.5 t 43.5 22.5 h 5 q 25 0 43.5 -17 t 20.5 -42 z m -1156 -1217 l -93 412 h -132 l 101 -441 q 19 -88 89 -143.5 t 160 -55.5 h 167 q 0 -26 19 -45 t 45 -19 h 384 q 26 0 45 19 t 19 45 h 167 q 90 0 160 55.5 t 89 143.5 l 101 441 h -132 l -93 -412 q -11 -44 -45.5 -72 t -79.5 -28 h -167 q 0 26 -19 45 t -45 19 h -384 q -26 0 -45 -19 t -19 -45 h -167 q -45 0 -79.5 28 t -45.5 72 z" stroke-linecap="round" />
</g>
</svg>